<svg width="19" height="19" viewBox="0 0 19 19" fill="none" xmlns="http://www.w3.org/2000/svg">
<path d="M9.61565 7.28113C9.61576 7.13344 9.54468 6.99755 9.43073 6.92733C9.42291 6.92251 8.63803 6.43461 7.71813 5.50953C6.87822 4.66487 5.7487 3.27039 5.13754 1.4237C5.08578 1.26732 4.9545 1.16382 4.8079 1.16382C4.66129 1.16382 4.53001 1.26732 4.47826 1.4237C3.86709 3.27039 2.73758 4.66485 1.89766 5.50951C0.977748 6.43459 0.192865 6.92249 0.18529 6.92715C0.0711705 6.99721 0 7.13308 0 7.28085C0 7.42863 0.0711705 7.56449 0.18529 7.63455C0.192988 7.63927 0.965011 8.11739 1.88337 9.03786C2.72842 9.88484 3.86455 11.2837 4.47826 13.138C4.53001 13.2944 4.66129 13.3979 4.8079 13.3979C4.9545 13.3979 5.08578 13.2944 5.13754 13.138C5.7487 11.2913 6.87822 9.89685 7.71815 9.0522C8.63805 8.12711 9.42293 7.63921 9.4305 7.63455C9.54453 7.56457 9.61556 7.42879 9.61565 7.28113Z" fill="#25CEB0"/>
<path d="M12.4715 14.8177C12.4581 14.8094 11.1221 13.968 10.6175 12.4431C10.5657 12.2867 10.4344 12.1832 10.2878 12.1832C10.1412 12.1832 10.0099 12.2867 9.95818 12.4431C9.45352 13.968 8.11758 14.8094 8.1047 14.8173C7.99078 14.8873 7.91992 15.023 7.91969 15.1705C7.91946 15.318 7.99044 15.454 8.10414 15.5244C8.11758 15.5327 9.4535 16.3741 9.95818 17.899C10.0099 18.0553 10.1412 18.1589 10.2878 18.1589C10.4344 18.1589 10.5657 18.0553 10.6175 17.899C11.1221 16.3741 12.4581 15.5327 12.4709 15.5248C12.5849 15.4548 12.6557 15.3191 12.6559 15.1716C12.6562 15.0241 12.5852 14.8881 12.4715 14.8177Z" fill="#25CEB0"/>
<path d="M18.8152 4.33924C18.8094 4.33564 18.2257 3.97236 17.5421 3.28416C16.9203 2.6581 16.0841 1.62522 15.6323 0.25988C15.5805 0.103507 15.4492 0 15.3026 0C15.156 0 15.0248 0.103507 14.973 0.25988C14.5211 1.62524 13.685 2.65812 13.0631 3.28416C12.3795 3.97238 11.7959 4.33567 11.7904 4.33906C11.6762 4.40912 11.6051 4.54499 11.6051 4.69276C11.6051 4.84054 11.6763 4.9764 11.7904 5.04646C11.8134 5.06059 14.1004 6.48901 14.973 9.12562C15.0248 9.282 15.156 9.3855 15.3026 9.3855C15.4492 9.3855 15.5805 9.282 15.6323 9.12562C16.0841 7.76029 16.9203 6.7274 17.5421 6.10135C18.2257 5.41312 18.8094 5.04984 18.8149 5.04644C18.9289 4.97646 18.9999 4.8407 19 4.69306C19.0002 4.54543 18.9291 4.40952 18.8152 4.33924Z" fill="#25CEB0"/>
</svg>
